<?xml version="1.0" encoding="UTF-8" standalone="no"?>
<svg
   id="Layer_1"
   width="668"
   height="242"
   viewBox="0 0 668 242"
   version="1.1"
   sodipodi:docname="clb-col-white.svg"
   inkscape:version="1.1.2 (0a00cf5339, 2022-02-04)"
   xmlns:inkscape="http://www.inkscape.org/namespaces/inkscape"
   xmlns:sodipodi="http://sodipodi.sourceforge.net/DTD/sodipodi-0.dtd"
   xmlns="http://www.w3.org/2000/svg"
   xmlns:svg="http://www.w3.org/2000/svg">
  <sodipodi:namedview
     id="namedview237"
     pagecolor="#ffffff"
     bordercolor="#666666"
     borderopacity="1.0"
     inkscape:pageshadow="2"
     inkscape:pageopacity="0.0"
     inkscape:pagecheckerboard="0"
     showgrid="false"
     inkscape:zoom="1.6407186"
     inkscape:cx="334.30474"
     inkscape:cy="121.28832"
     inkscape:window-width="1272"
     inkscape:window-height="673"
     inkscape:window-x="245"
     inkscape:window-y="251"
     inkscape:window-maximized="0"
     inkscape:current-layer="Layer_1" />
  <defs
     id="defs4">
    <style
       id="style2">.cls-1{fill:#00aeef;}.cls-2{fill:#f4ed86;}.cls-3{fill:#fff;}.cls-4{fill:#f37779;}.cls-5{fill:#29b264;}</style>
  </defs>
  <g
     id="g1529">
    <g
       id="g194"
       style="fill:#09203e;fill-opacity:1">
      <path
         class="cls-3"
         d="m 56.3,92.79 c 2.04,1.64 3.8,3.86 5.38,6.45 -1.41,-3.04 -3,-5.71 -4.84,-7.64 -0.18,0.39 -0.36,0.79 -0.54,1.19 z"
         id="path6"
         style="fill:#09203e;fill-opacity:1" />
      <path
         class="cls-3"
         d="m 57.98,119.82 c -2.11,-1.82 -4.38,-3.32 -6.94,-4.17 -0.02,0.45 -0.03,0.9 -0.04,1.36 2.57,0.51 4.87,1.53 6.98,2.82 z"
         id="path8"
         style="fill:#09203e;fill-opacity:1" />
      <path
         class="cls-3"
         d="m 51.07,121.15 c 2.68,0.29 5.07,1.09 7.25,2.14 -2.21,-1.58 -4.6,-2.87 -7.3,-3.51 0.01,0.46 0.03,0.91 0.05,1.37 z"
         id="path10"
         style="fill:#09203e;fill-opacity:1" />
      <path
         class="cls-3"
         d="m 57.93,116.32 c -2.01,-2.04 -4.17,-3.75 -6.6,-4.8 -0.05,0.45 -0.09,0.9 -0.12,1.34 2.47,0.72 4.69,1.95 6.72,3.46 z"
         id="path12"
         style="fill:#09203e;fill-opacity:1" />
      <path
         class="cls-3"
         d="m 51.89,107.41 c -0.08,0.44 -0.15,0.88 -0.21,1.33 2.39,0.92 4.53,2.36 6.49,4.1 -1.91,-2.26 -3.96,-4.17 -6.28,-5.42 z"
         id="path14"
         style="fill:#09203e;fill-opacity:1" />
      <path
         class="cls-3"
         d="m 58.32,147.46 c 0.22,0.42 0.45,0.83 0.68,1.24 3.17,-2.03 5.37,-3.7 7.27,-5.26 z"
         id="path16"
         style="fill:#09203e;fill-opacity:1" />
      <path
         class="cls-3"
         d="m 68.76,148.64 c -1.54,1.8 -3.43,3.74 -6.09,5.84 0.27,0.38 0.55,0.76 0.84,1.14 2.48,-2.42 4.03,-4.73 5.25,-6.97 z"
         id="path18"
         style="fill:#09203e;fill-opacity:1" />
      <path
         class="cls-3"
         d="m 65.19,157.75 c 0.3,0.36 0.6,0.72 0.9,1.07 2.09,-2.5 3.31,-4.98 4.2,-7.42 -1.23,2.02 -2.81,4.14 -5.1,6.34 z"
         id="path20"
         style="fill:#09203e;fill-opacity:1" />
      <path
         class="cls-3"
         d="m 67.46,145.96 c -1.85,1.49 -4.05,3.14 -7.08,5.07 0.25,0.4 0.5,0.8 0.76,1.2 2.86,-2.27 4.74,-4.32 6.32,-6.27 z"
         id="path22"
         style="fill:#09203e;fill-opacity:1" />
      <path
         class="cls-3"
         d="m 58.96,126.69 c -2.32,-1.34 -4.82,-2.39 -7.7,-2.79 0.04,0.46 0.09,0.92 0.14,1.37 2.82,0.05 5.3,0.61 7.55,1.41 z"
         id="path24"
         style="fill:#09203e;fill-opacity:1" />
      <path
         class="cls-3"
         d="m 59.87,129.97 c -2.42,-1.06 -5.03,-1.85 -8.09,-1.97 0.07,0.46 0.15,0.92 0.23,1.37 2.97,-0.22 5.54,0.07 7.86,0.6 z"
         id="path26"
         style="fill:#09203e;fill-opacity:1" />
      <path
         class="cls-3"
         d="m 73.97,166.51 c 0.35,0.29 0.71,0.58 1.07,0.86 1.1,-2.56 1.48,-5.25 1.52,-7.98 -0.45,2.38 -1.23,4.78 -2.59,7.12 z"
         id="path28"
         style="fill:#09203e;fill-opacity:1" />
      <path
         class="cls-3"
         d="m 54.93,139.94 c 0.17,0.44 0.34,0.88 0.51,1.32 3.36,-1.29 6,-2.09 8.29,-2.69 -2.51,0.11 -5.27,0.42 -8.8,1.37 z"
         id="path30"
         style="fill:#09203e;fill-opacity:1" />
      <path
         class="cls-3"
         d="m 56.5,143.76 c 0.19,0.43 0.39,0.86 0.6,1.29 l 7.96,-4.02 c -2.38,0.61 -5.04,1.38 -8.55,2.73 z"
         id="path32"
         style="fill:#09203e;fill-opacity:1" />
      <path
         class="cls-3"
         d="m 67.92,160.86 c 0.32,0.34 0.64,0.67 0.97,1.01 1.72,-2.54 2.64,-5.12 3.22,-7.69 -0.95,2.18 -2.24,4.43 -4.18,6.69 z"
         id="path34"
         style="fill:#09203e;fill-opacity:1" />
      <path
         class="cls-3"
         d="m 70.85,163.78 c 0.34,0.31 0.68,0.63 1.02,0.93 1.39,-2.55 2.03,-5.2 2.33,-7.86 -0.69,2.29 -1.71,4.63 -3.35,6.93 z"
         id="path36"
         style="fill:#09203e;fill-opacity:1" />
      <path
         class="cls-3"
         d="m 53.61,136.03 c 0.14,0.45 0.27,0.9 0.42,1.35 3.27,-0.9 5.95,-1.27 8.32,-1.44 -2.54,-0.34 -5.31,-0.47 -8.74,0.09 z"
         id="path38"
         style="fill:#09203e;fill-opacity:1" />
      <path
         class="cls-3"
         d="m 58.71,109.4 c -1.81,-2.49 -3.76,-4.62 -5.98,-6.06 -0.1,0.43 -0.2,0.87 -0.3,1.3 2.32,1.12 4.39,2.78 6.28,4.75 z"
         id="path40"
         style="fill:#09203e;fill-opacity:1" />
      <path
         class="cls-3"
         d="m 63.24,96.23 c -1.29,-3.31 -2.76,-6.22 -4.51,-8.34 -0.21,0.38 -0.42,0.76 -0.62,1.15 1.98,1.84 3.65,4.32 5.13,7.19 z"
         id="path42"
         style="fill:#09203e;fill-opacity:1" />
      <path
         class="cls-3"
         d="m 60.41,102.52 c -1.54,-2.84 -3.25,-5.32 -5.2,-7.09 -0.16,0.41 -0.31,0.82 -0.46,1.23 1.97,1.36 3.85,3.3 5.67,5.86 z"
         id="path44"
         style="fill:#09203e;fill-opacity:1" />
      <path
         class="cls-3"
         d="m 60.86,84.31 c -0.24,0.37 -0.47,0.74 -0.69,1.11 1.91,2.06 3.49,4.81 4.86,7.98 -1.15,-3.6 -2.5,-6.77 -4.16,-9.08 z"
         id="path46"
         style="fill:#09203e;fill-opacity:1" />
      <path
         class="cls-3"
         d="m 59.45,105.95 c -1.68,-2.69 -3.52,-5 -5.62,-6.61 -0.13,0.42 -0.26,0.85 -0.38,1.28 2.07,1.2 4.06,2.97 6,5.33 z"
         id="path48"
         style="fill:#09203e;fill-opacity:1" />
      <path
         class="cls-3"
         d="m 61.02,133.06 c -2.49,-0.73 -5.21,-1.22 -8.46,-1.02 0.1,0.46 0.21,0.91 0.33,1.37 3.13,-0.54 5.77,-0.55 8.13,-0.34 z"
         id="path50"
         style="fill:#09203e;fill-opacity:1" />
      <path
         class="cls-3"
         d="m 160.62,147.93 c 2.44,-0.03 4.91,0.26 7.36,1.11 0.22,-0.39 0.44,-0.78 0.66,-1.18 -2.61,-0.55 -5.3,-0.41 -8.01,0.07 z"
         id="path52"
         style="fill:#09203e;fill-opacity:1" />
      <path
         class="cls-3"
         d="m 146.11,161.13 c 1.65,1.67 3.5,3.69 5.7,6.47 0.37,-0.29 0.74,-0.58 1.11,-0.87 -2.52,-2.58 -4.73,-4.23 -6.81,-5.6 z"
         id="path54"
         style="fill:#09203e;fill-opacity:1" />
      <path
         class="cls-3"
         d="m 136.64,167.23 c -0.09,2.54 0.06,5.3 0.95,8.63 0.43,-0.18 0.87,-0.37 1.29,-0.56 -1.21,-3.14 -1.85,-5.76 -2.25,-8.08 z"
         id="path56"
         style="fill:#09203e;fill-opacity:1" />
      <path
         class="cls-3"
         d="m 144.98,172.2 c 0.41,-0.24 0.81,-0.48 1.21,-0.72 l -4.76,-7.45 c 0.84,2.3 1.87,4.85 3.54,8.17 z"
         id="path58"
         style="fill:#09203e;fill-opacity:1" />
      <path
         class="cls-3"
         d="m 154.99,164.98 c 0.35,-0.31 0.7,-0.62 1.04,-0.94 -2.63,-2.19 -5.06,-3.48 -7.39,-4.47 1.93,1.34 4.02,3.01 6.35,5.41 z"
         id="path60"
         style="fill:#09203e;fill-opacity:1" />
      <path
         class="cls-3"
         d="m 141.35,174.15 c 0.42,-0.21 0.84,-0.42 1.26,-0.64 -1.6,-3.19 -2.66,-5.71 -3.48,-7.92 0.36,2.47 0.93,5.17 2.22,8.56 z"
         id="path62"
         style="fill:#09203e;fill-opacity:1" />
      <path
         class="cls-3"
         d="m 79.15,161.72 c -0.22,2.46 -0.77,4.93 -1.89,7.31 0.37,0.26 0.74,0.52 1.12,0.78 0.84,-2.57 0.98,-5.3 0.77,-8.09 z"
         id="path64"
         style="fill:#09203e;fill-opacity:1" />
      <path
         class="cls-3"
         d="m 97.91,170.94 c 1.16,2.82 1.91,5.57 2.01,8.2 0.43,0.09 0.85,0.19 1.28,0.27 -0.46,-2.64 -1.67,-5.51 -3.29,-8.47 z"
         id="path66"
         style="fill:#09203e;fill-opacity:1" />
      <path
         class="cls-3"
         d="m 157.99,162.15 c 0.33,-0.33 0.65,-0.66 0.97,-1 -2.67,-1.79 -5.23,-2.74 -7.72,-3.38 2.12,1.01 4.36,2.36 6.75,4.38 z"
         id="path68"
         style="fill:#09203e;fill-opacity:1" />
      <path
         class="cls-3"
         d="m 158.56,150.74 c 2.38,0.2 4.81,0.73 7.25,1.82 0.25,-0.38 0.5,-0.76 0.74,-1.14 -2.62,-0.81 -5.3,-0.91 -7.98,-0.68 z"
         id="path70"
         style="fill:#09203e;fill-opacity:1" />
      <path
         class="cls-3"
         d="m 160.8,159.13 c 0.3,-0.35 0.6,-0.7 0.9,-1.05 -2.66,-1.42 -5.29,-2.06 -7.88,-2.38 2.24,0.72 4.57,1.76 6.99,3.43 z"
         id="path72"
         style="fill:#09203e;fill-opacity:1" />
      <path
         class="cls-3"
         d="m 163.41,155.93 c 0.28,-0.36 0.55,-0.73 0.82,-1.1 -2.65,-1.1 -5.31,-1.46 -7.96,-1.49 2.32,0.45 4.71,1.22 7.14,2.59 z"
         id="path74"
         style="fill:#09203e;fill-opacity:1" />
      <path
         class="cls-3"
         d="m 143.72,162.57 4.75,7.44 c 0.39,-0.26 0.78,-0.53 1.16,-0.8 -2.31,-2.91 -4.19,-4.92 -5.92,-6.64 z"
         id="path76"
         style="fill:#09203e;fill-opacity:1" />
      <path
         class="cls-3"
         d="m 87.97,167.31 c 0.47,2.7 0.58,5.37 0.09,7.91 0.41,0.18 0.82,0.36 1.23,0.54 0.16,-2.65 -0.39,-5.5 -1.33,-8.45 z"
         id="path78"
         style="fill:#09203e;fill-opacity:1" />
      <path
         class="cls-3"
         d="m 91.92,176.79 c 0.42,0.15 0.84,0.3 1.26,0.45 -0.04,-2.65 -0.82,-5.52 -1.99,-8.48 0.75,2.98 1,5.65 0.73,8.04 z"
         id="path80"
         style="fill:#09203e;fill-opacity:1" />
      <path
         class="cls-3"
         d="m 160.8,132.7 c -3.15,-4.86 -5.88,-9.06 -13.86,-9.99 -0.14,-0.01 -0.27,-0.03 -0.41,-0.04 -6.57,-0.66 -12.52,-3.78 -17.31,-6.29 -4.54,-2.38 -8.46,-4.43 -10.9,-3.41 1.87,1.8 3.48,6.27 5.9,12.97 2.38,6.61 5.09,14.09 8.42,19.31 0.07,0.11 0.14,0.22 0.21,0.32 1.91,2.82 4.34,4.17 7.61,4.24 3.25,0.07 7,-1.07 10.97,-2.27 5.8,-1.76 12.24,-3.72 18.46,-2.16 0.32,-0.65 0.62,-1.3 0.91,-1.97 -5.05,-3.06 -7.67,-7.08 -10.02,-10.71 z"
         id="path82"
         style="fill:#09203e;fill-opacity:1" />
      <path
         class="cls-3"
         d="m 133.91,168.83 c -0.48,2.55 -0.69,5.29 -0.18,8.48 0.44,-0.15 0.88,-0.31 1.32,-0.47 -0.84,-3.04 -1.12,-5.66 -1.15,-8.02 z"
         id="path84"
         style="fill:#09203e;fill-opacity:1" />
      <path
         class="cls-3"
         d="m 81.94,163.83 c 0,2.54 -0.32,5.07 -1.22,7.5 0.38,0.24 0.77,0.47 1.16,0.7 0.6,-2.59 0.51,-5.36 0.06,-8.2 z"
         id="path86"
         style="fill:#09203e;fill-opacity:1" />
      <path
         class="cls-3"
         d="m 84.89,165.7 c 0.23,2.62 0.13,5.21 -0.56,7.69 0.4,0.21 0.8,0.42 1.2,0.62 0.38,-2.61 0.05,-5.42 -0.64,-8.31 z"
         id="path88"
         style="fill:#09203e;fill-opacity:1" />
      <path
         class="cls-3"
         d="m 130.95,170.29 c -0.81,2.5 -1.34,5.18 -1.15,8.22 0.45,-0.12 0.9,-0.25 1.34,-0.37 -0.51,-2.92 -0.48,-5.5 -0.19,-7.85 z"
         id="path90"
         style="fill:#09203e;fill-opacity:1" />
      <path
         class="cls-3"
         d="m 124.45,172.51 c -1.35,2.36 -2.39,4.86 -2.76,7.61 0.45,-0.06 0.91,-0.12 1.36,-0.19 0.02,-2.7 0.58,-5.15 1.4,-7.42 z"
         id="path92"
         style="fill:#09203e;fill-opacity:1" />
      <path
         class="cls-3"
         d="m 127.78,171.53 c -1.1,2.44 -1.9,5.03 -2,7.92 0.45,-0.09 0.9,-0.18 1.35,-0.28 -0.23,-2.8 0.08,-5.32 0.65,-7.64 z"
         id="path94"
         style="fill:#09203e;fill-opacity:1" />
      <path
         class="cls-3"
         d="m 118.93,180.41 c 0.25,-2.61 1.04,-4.99 2.1,-7.21 -1.59,2.28 -2.86,4.69 -3.45,7.32 0.45,-0.03 0.9,-0.06 1.35,-0.1 z"
         id="path96"
         style="fill:#09203e;fill-opacity:1" />
      <path
         class="cls-3"
         d="m 95.88,178.09 c 0.42,0.12 0.85,0.24 1.27,0.36 -0.26,-2.63 -1.25,-5.49 -2.62,-8.44 0.99,3 1.44,5.67 1.35,8.08 z"
         id="path98"
         style="fill:#09203e;fill-opacity:1" />
      <path
         class="cls-3"
         d="m 167.13,123.37 c 2.35,0.5 5.02,1.02 8.66,1.58 0.05,-0.46 0.1,-0.93 0.14,-1.4 -3.68,-0.18 -6.4,-0.2 -8.8,-0.18 z"
         id="path100"
         style="fill:#09203e;fill-opacity:1" />
      <path
         class="cls-3"
         d="m 166.9,126.09 c 2.24,1.01 4.78,2.01 8.31,2.93 0.08,-0.46 0.16,-0.92 0.23,-1.39 -3.56,-0.54 -6.25,-1.06 -8.54,-1.54 z"
         id="path102"
         style="fill:#09203e;fill-opacity:1" />
      <path
         class="cls-3"
         d="m 172.19,96.05 c -0.16,-0.44 -0.33,-0.87 -0.51,-1.3 -3.21,1.16 -5.81,1.82 -8.1,2.27 2.49,0.04 5.22,-0.13 8.6,-0.97 z"
         id="path104"
         style="fill:#09203e;fill-opacity:1" />
      <path
         class="cls-3"
         d="m 160.57,101.51 c -5.23,-1.26 -9.75,-2.35 -17.17,1.72 -5.77,3.16 -10.97,3.91 -15.14,4.52 -3.35,0.48 -6.04,0.87 -8.2,2.24 3.03,0.11 6.53,1.94 10.42,3.98 4.82,2.52 10.28,5.38 16.32,5.99 8.29,0.83 11.85,-2.79 15.98,-7 3.02,-3.08 6.38,-6.49 11.91,-8.48 -0.14,-0.64 -0.29,-1.28 -0.45,-1.91 -5.67,0.86 -9.88,-0.15 -13.66,-1.06 z"
         id="path106"
         style="fill:#09203e;fill-opacity:1" />
      <path
         class="cls-3"
         d="m 173.5,99.94 c -0.13,-0.44 -0.27,-0.89 -0.42,-1.33 -3.11,0.79 -5.72,1.05 -8.05,1.1 2.5,0.45 5.21,0.68 8.46,0.22 z"
         id="path108"
         style="fill:#09203e;fill-opacity:1" />
      <path
         class="cls-3"
         d="m 167.44,120.66 c 2.34,-0.02 5.07,0.01 8.66,0.19 0.02,-0.47 0.04,-0.93 0.05,-1.4 -3.63,0.2 -6.32,0.67 -8.7,1.21 z"
         id="path110"
         style="fill:#09203e;fill-opacity:1" />
      <path
         class="cls-3"
         d="m 176.15,116.74 c 0,-0.47 -0.02,-0.93 -0.04,-1.4 -3.44,0.55 -6.02,1.46 -8.3,2.47 2.28,-0.48 4.93,-0.89 8.34,-1.07 z"
         id="path112"
         style="fill:#09203e;fill-opacity:1" />
      <path
         class="cls-3"
         d="m 168.8,88.57 c -0.22,-0.41 -0.45,-0.82 -0.68,-1.23 -3.13,1.93 -5.37,3.44 -7.34,4.82 2.22,-0.92 4.7,-1.99 8.01,-3.59 z"
         id="path114"
         style="fill:#09203e;fill-opacity:1" />
      <path
         class="cls-3"
         d="m 174.36,133.04 c 0.11,-0.45 0.22,-0.91 0.32,-1.36 -3.32,-0.86 -5.85,-1.8 -7.99,-2.72 2.04,1.45 4.39,2.86 7.67,4.09 z"
         id="path116"
         style="fill:#09203e;fill-opacity:1" />
      <path
         class="cls-3"
         d="m 168.18,111.51 c 2.02,-1.17 4.36,-2.23 7.26,-2.98 -0.07,-0.46 -0.14,-0.91 -0.22,-1.36 -2.88,1.1 -5.1,2.64 -7.04,4.34 z"
         id="path118"
         style="fill:#09203e;fill-opacity:1" />
      <path
         class="cls-3"
         d="m 168.09,114.75 c 2.16,-0.86 4.67,-1.64 7.84,-2.12 -0.04,-0.46 -0.08,-0.92 -0.13,-1.38 -3.17,0.85 -5.58,2.12 -7.71,3.51 z"
         id="path120"
         style="fill:#09203e;fill-opacity:1" />
      <path
         class="cls-3"
         d="m 76.5,83.49 c 3.15,3.37 5.87,6.29 12.66,12.03 h 0.01 c 3.07,2.61 6.42,4.22 9.68,5.45 -2.84,-1.63 -5.79,-3.72 -8.48,-6.69 -5.97,-6.6 -8.98,-9.22 -12.46,-12.26 -2.33,-2.04 -4.92,-4.3 -8.72,-8.09 -0.36,0.36 -0.72,0.73 -1.07,1.1 3.92,3.67 6.27,6.19 8.38,8.45 z"
         id="path122"
         style="fill:#09203e;fill-opacity:1" />
      <path
         class="cls-3"
         d="m 165.8,135.2 c 1.57,2.06 3.45,4.02 6.07,5.68 0.17,-0.43 0.33,-0.86 0.49,-1.3 -2.72,-1.31 -4.82,-2.82 -6.57,-4.38 z"
         id="path124"
         style="fill:#09203e;fill-opacity:1" />
      <path
         class="cls-3"
         d="m 166.36,132.01 c 1.81,1.79 3.93,3.52 6.89,4.99 0.14,-0.44 0.28,-0.89 0.41,-1.33 -3.02,-1.11 -5.34,-2.38 -7.3,-3.66 z"
         id="path126"
         style="fill:#09203e;fill-opacity:1" />
      <path
         class="cls-3"
         d="m 124.53,164.7 c 2.77,-3.09 5.38,-6.02 6.68,-8.99 1.31,-3 1.11,-5.77 -0.65,-8.69 -0.07,-0.11 -0.13,-0.22 -0.2,-0.33 -3.49,-5.47 -6.25,-13.11 -8.68,-19.84 -1.17,-3.24 -2.27,-6.3 -3.27,-8.55 -1.09,-2.46 -1.75,-3.22 -2.02,-3.45 -0.04,0.04 -0.08,0.1 -0.13,0.17 -0.49,0.86 -0.92,1.96 -1.3,3.33 -0.01,0.04 -0.03,0.08 -0.04,0.12 l -0.02,0.04 c 0,0 -0.02,0.05 -0.03,0.08 l -0.02,0.04 c 0,0 -0.03,0.05 -0.04,0.07 l -0.02,0.04 c 0,0 -0.03,0.05 -0.05,0.07 l -0.02,0.03 c 0,0 -0.05,0.06 -0.08,0.09 v 0 c 0,0 -0.06,0.06 -0.09,0.09 l -0.03,0.03 c 0,0 -0.04,0.03 -0.06,0.05 l -0.04,0.03 c 0,0 -0.04,0.03 -0.06,0.04 l -0.04,0.02 c 0,0 -0.05,0.02 -0.07,0.04 l -0.04,0.02 c 0,0 -0.07,0.03 -0.1,0.04 h -0.01 c 0,0 -0.08,0.03 -0.12,0.04 h -0.04 c 0,0 -0.05,0.02 -0.08,0.02 h -0.05 c 0,0 -0.05,0.01 -0.08,0.01 h -0.1 c 0,0 -0.08,0 -0.12,0 -0.02,0 -0.03,0 -0.05,0 -0.05,0 -0.11,-0.02 -0.16,-0.03 -0.05,-0.01 -0.09,-0.03 -0.13,-0.04 -0.51,-0.2 -0.85,-0.68 -0.86,-1.22 0,-0.13 0.01,-0.27 0.05,-0.4 0.25,-0.9 0.42,-1.72 0.53,-2.47 0.09,-0.7 0.06,-1.08 0.03,-1.27 -0.35,0.06 -1.31,0.38 -3.5,1.94 -2.01,1.43 -4.52,3.5 -7.18,5.69 -5.53,4.56 -11.79,9.72 -17.58,12.65 -0.08,0.04 -0.17,0.09 -0.25,0.13 -1.2,0.66 -1.88,1.48 -2.07,2.49 -0.81,4.32 6.35,12.29 13.28,20 7.31,8.13 14.82,16.5 16.73,23.84 0.42,0 0.83,0.01 1.25,0.01 0.42,0 0.81,0 1.21,-0.01 1.17,-6.33 5.68,-11.38 9.74,-15.92 z"
         id="path128"
         style="fill:#09203e;fill-opacity:1" />
      <path
         class="cls-3"
         d="m 159.51,89.75 c 1.92,-1.33 4.18,-2.85 7.23,-4.73 -0.25,-0.4 -0.5,-0.79 -0.75,-1.18 -2.87,2.21 -4.82,4.12 -6.47,5.91 z"
         id="path130"
         style="fill:#09203e;fill-opacity:1" />
      <path
         class="cls-3"
         d="m 111.42,63.5 c 1.17,-2.25 2.19,-4.77 2.72,-8.02 -0.19,0 -0.37,0 -0.56,0 -0.28,0 -0.55,0 -0.83,0 -0.17,3.2 -0.69,5.78 -1.33,8.02 z"
         id="path132"
         style="fill:#09203e;fill-opacity:1" />
      <path
         class="cls-3"
         d="m 170.61,92.26 c -0.19,-0.43 -0.39,-0.85 -0.59,-1.27 -3.23,1.56 -5.73,2.65 -7.89,3.55 2.41,-0.43 5.06,-1.05 8.48,-2.28 z"
         id="path134"
         style="fill:#09203e;fill-opacity:1" />
      <path
         class="cls-3"
         d="m 131.73,90.13 c -3.29,5.55 -5.87,8.66 -8.16,11.41 -1.79,2.15 -3.14,4.02 -4.19,5.73 2.48,-1.33 5.29,-1.74 8.5,-2.2 4.16,-0.6 8.88,-1.28 14.22,-4.21 7.42,-4.07 8.93,-8.46 10.69,-13.54 1.27,-3.67 2.67,-7.75 6.44,-12.06 -0.44,-0.47 -0.88,-0.92 -1.33,-1.38 -4.43,3.62 -8.56,4.89 -12.27,6.03 -5.14,1.58 -9.58,2.95 -13.9,10.23 z"
         id="path136"
         style="fill:#09203e;fill-opacity:1" />
      <path
         class="cls-3"
         d="m 148.55,76.09 c 2.37,-0.88 4.81,-2.07 7.37,-4.1 -0.34,-0.31 -0.68,-0.62 -1.03,-0.93 -2.27,2.25 -4.37,3.81 -6.34,5.03 z"
         id="path138"
         style="fill:#09203e;fill-opacity:1" />
      <path
         class="cls-3"
         d="m 145.92,74.5 c 2.16,-1.24 4.42,-2.77 6.9,-5.2 -0.36,-0.29 -0.73,-0.58 -1.1,-0.86 -2.17,2.63 -4.07,4.51 -5.8,6.06 z"
         id="path140"
         style="fill:#09203e;fill-opacity:1" />
      <path
         class="cls-3"
         d="m 114.63,63.09 c 1.49,-2.1 2.81,-4.46 3.61,-7.44 -0.46,-0.03 -0.92,-0.06 -1.38,-0.09 -0.45,2.97 -1.27,5.4 -2.23,7.52 z"
         id="path142"
         style="fill:#09203e;fill-opacity:1" />
      <path
         class="cls-3"
         d="m 108.64,55.68 c 0.16,3.42 0.02,6.1 -0.23,8.42 0.77,-2.37 1.42,-5.03 1.63,-8.51 -0.47,0.03 -0.93,0.06 -1.4,0.09 z"
         id="path144"
         style="fill:#09203e;fill-opacity:1" />
      <path
         class="cls-3"
         d="m 161.94,78.34 c -0.29,-0.36 -0.59,-0.71 -0.89,-1.06 -2.12,2.49 -3.39,4.89 -4.35,7.23 1.29,-1.93 2.92,-3.98 5.24,-6.17 z"
         id="path146"
         style="fill:#09203e;fill-opacity:1" />
      <path
         class="cls-3"
         d="m 79.11,65.82 c -0.38,0.25 -0.76,0.51 -1.13,0.76 2.12,1.83 4.53,3.01 7.07,3.87 -2.08,-1.15 -4.11,-2.62 -5.93,-4.64 z"
         id="path148"
         style="fill:#09203e;fill-opacity:1" />
      <path
         class="cls-3"
         d="m 88.15,69 c -1.92,-1.36 -3.8,-3.06 -5.52,-5.34 -0.4,0.23 -0.79,0.46 -1.19,0.69 2.03,2.12 4.32,3.54 6.71,4.64 z"
         id="path150"
         style="fill:#09203e;fill-opacity:1" />
      <path
         class="cls-3"
         d="m 158.2,87.19 c 1.61,-1.68 3.55,-3.52 6.26,-5.59 -0.27,-0.38 -0.55,-0.75 -0.83,-1.12 -2.52,2.4 -4.12,4.6 -5.43,6.72 z"
         id="path152"
         style="fill:#09203e;fill-opacity:1" />
      <path
         class="cls-3"
         d="m 97.42,66.33 c -1.14,-2.04 -2.32,-4.47 -3.51,-7.69 -0.44,0.15 -0.89,0.3 -1.33,0.46 1.55,3.15 3.19,5.35 4.84,7.24 z"
         id="path154"
         style="fill:#09203e;fill-opacity:1" />
      <path
         class="cls-3"
         d="m 94.42,66.96 c -1.47,-1.82 -2.96,-4 -4.37,-6.9 -0.43,0.18 -0.86,0.36 -1.29,0.54 1.76,2.8 3.69,4.74 5.66,6.36 z"
         id="path156"
         style="fill:#09203e;fill-opacity:1" />
      <path
         class="cls-3"
         d="m 92.39,92.47 c 4.07,4.5 8.77,6.77 12.91,8.78 3.11,1.5 6.03,2.92 7.99,5.06 -0.49,-2.39 -1.49,-4.43 -2.67,-6.84 -1.61,-3.27 -3.6,-7.34 -4.9,-13.72 v 0 C 104.1,77.81 98.4,76.52 91.18,74.88 86.03,73.71 80.3,72.42 75.75,68.22 c -0.5,0.38 -0.99,0.76 -1.47,1.15 3.39,4.16 5.38,6.96 7.17,9.48 2.67,3.77 4.98,7.02 10.95,13.62 z"
         id="path158"
         style="fill:#09203e;fill-opacity:1" />
      <path
         class="cls-3"
         d="m 108.36,113.24 c 1.48,-1.01 2.98,-1.9 4.3,-2.05 -1.08,-3.2 -4.65,-4.34 -9.77,-5.98 -4.64,-1.49 -10.42,-3.34 -15.46,-7.6 v 0 C 80.63,91.86 77.3,89.66 73.45,87.12 c -2.59,-1.71 -5.46,-3.61 -9.74,-6.86 -0.42,0.56 -0.84,1.12 -1.24,1.69 4.75,5.9 7.03,16.89 9.24,27.57 2.1,10.15 4.27,20.64 8.23,22.55 0.93,0.45 1.99,0.39 3.23,-0.19 0.08,-0.04 0.17,-0.08 0.25,-0.12 5.52,-2.79 11.66,-7.85 17.08,-12.32 2.92,-2.41 5.68,-4.68 7.87,-6.18 z"
         id="path160"
         style="fill:#09203e;fill-opacity:1" />
      <path
         class="cls-3"
         d="m 104.61,171.72 c 1.75,3 3.04,5.91 3.55,8.69 0.44,0.04 0.87,0.07 1.31,0.1 -0.88,-2.73 -2.64,-5.71 -4.86,-8.78 z"
         id="path162"
         style="fill:#09203e;fill-opacity:1" />
      <path
         class="cls-3"
         d="m 77.59,78.13 c -1.41,-1.96 -3.05,-4.14 -5.4,-7.02 -0.35,0.31 -0.7,0.63 -1.05,0.94 2.63,2.62 4.64,4.47 6.44,6.07 z"
         id="path164"
         style="fill:#09203e;fill-opacity:1" />
      <path
         class="cls-3"
         d="m 66.3,77.05 c -0.31,0.35 -0.61,0.71 -0.91,1.08 2.96,2.25 5.2,3.82 7.21,5.17 -1.67,-1.75 -3.58,-3.7 -6.3,-6.24 z"
         id="path166"
         style="fill:#09203e;fill-opacity:1" />
      <path
         class="cls-3"
         d="m 100.26,65.83 c -0.71,-2.24 -1.49,-4.86 -2.39,-8.35 -0.45,0.12 -0.91,0.24 -1.36,0.37 1.27,3.43 2.52,5.86 3.75,7.99 z"
         id="path168"
         style="fill:#09203e;fill-opacity:1" />
      <path
         class="cls-3"
         d="m 91.3,67.83 c -1.73,-1.59 -3.44,-3.52 -5.02,-6.1 -0.42,0.2 -0.83,0.41 -1.24,0.62 1.91,2.45 4.06,4.12 6.26,5.48 z"
         id="path170"
         style="fill:#09203e;fill-opacity:1" />
      <path
         class="cls-3"
         d="m 142.52,62.56 c -0.41,-0.22 -0.83,-0.43 -1.25,-0.63 -1.35,3.37 -2.05,6.01 -2.56,8.4 0.97,-2.13 2.14,-4.58 3.81,-7.76 z"
         id="path172"
         style="fill:#09203e;fill-opacity:1" />
      <path
         class="cls-3"
         d="m 146.1,64.58 c -0.4,-0.24 -0.8,-0.48 -1.2,-0.72 -1.71,3.25 -2.87,5.7 -3.86,7.88 1.44,-1.92 3.03,-4.11 5.06,-7.17 z"
         id="path174"
         style="fill:#09203e;fill-opacity:1" />
      <path
         class="cls-3"
         d="m 101.27,171.47 c 1.44,2.91 2.45,5.74 2.75,8.44 0.43,0.07 0.86,0.13 1.3,0.18 -0.66,-2.68 -2.14,-5.61 -4.05,-8.62 z"
         id="path176"
         style="fill:#09203e;fill-opacity:1" />
      <path
         class="cls-3"
         d="m 138.82,60.78 c -0.43,-0.19 -0.85,-0.37 -1.28,-0.55 -0.95,3.35 -1.21,6.07 -1.25,8.56 0.53,-2.27 1.27,-4.84 2.54,-8.01 z"
         id="path178"
         style="fill:#09203e;fill-opacity:1" />
      <path
         class="cls-3"
         d="m 149.53,66.83 c -0.38,-0.27 -0.77,-0.53 -1.15,-0.79 -1.98,2.99 -3.57,5.19 -4.97,7.06 1.85,-1.6 3.82,-3.48 6.13,-6.27 z"
         id="path180"
         style="fill:#09203e;fill-opacity:1" />
      <path
         class="cls-3"
         d="m 102.94,65.33 c -0.22,-2.4 -0.51,-5.1 -1.06,-8.75 -0.46,0.09 -0.92,0.18 -1.38,0.28 0.92,3.58 1.71,6.18 2.44,8.47 z"
         id="path182"
         style="fill:#09203e;fill-opacity:1" />
      <path
         class="cls-3"
         d="m 133.63,67.25 c 0.13,-2.32 0.48,-4.93 1.37,-8 -0.44,-0.16 -0.87,-0.31 -1.31,-0.46 -0.56,3.24 -0.43,5.96 -0.06,8.47 z"
         id="path184"
         style="fill:#09203e;fill-opacity:1" />
      <path
         class="cls-3"
         d="m 122.33,56.09 c -0.45,-0.06 -0.9,-0.12 -1.36,-0.17 -0.69,2.74 -1.75,5.02 -2.98,7.01 1.76,-1.93 3.31,-4.12 4.34,-6.84 z"
         id="path186"
         style="fill:#09203e;fill-opacity:1" />
      <path
         class="cls-3"
         d="m 105.61,64.74 c 0.3,-2.43 0.5,-5.16 0.33,-8.79 -0.47,0.06 -0.93,0.12 -1.39,0.18 0.54,3.56 0.84,6.28 1.06,8.61 z"
         id="path188"
         style="fill:#09203e;fill-opacity:1" />
      <path
         class="cls-3"
         d="m 126.39,56.8 c -0.44,-0.09 -0.89,-0.18 -1.33,-0.26 -0.9,2.55 -2.18,4.67 -3.63,6.53 1.98,-1.77 3.73,-3.78 4.97,-6.27 z"
         id="path190"
         style="fill:#09203e;fill-opacity:1" />
      <path
         class="cls-3"
         d="m 117.51,69.52 c -5.89,4.24 -10.57,7.6 -9.23,15.21 0.03,0.16 0.06,0.31 0.09,0.47 1.23,6.04 3.06,9.77 4.68,13.07 1.45,2.95 2.73,5.57 3.14,9.02 1.59,-3.01 3.29,-5.07 5.31,-7.49 2.22,-2.67 4.73,-5.7 7.91,-11.06 4.31,-7.28 3.38,-11.83 2.29,-17.1 -0.78,-3.81 -1.65,-8.05 -0.6,-13.69 -0.66,-0.19 -1.32,-0.37 -1.99,-0.54 -2.56,5.61 -7.31,9.03 -11.58,12.1 z"
         id="path192"
         style="fill:#09203e;fill-opacity:1" />
    </g>
    <g
       id="g222"
       style="fill:#09203e;fill-opacity:1">
      <path
         class="cls-3"
         d="m 224.1,105.51 c -3.23,0 -5.73,1.21 -7.5,3.64 -1.77,2.43 -2.66,5.81 -2.66,10.14 0,9.02 3.39,13.53 10.16,13.53 2.84,0 6.28,-0.71 10.32,-2.13 v 7.19 c -3.32,1.38 -7.03,2.08 -11.12,2.08 -5.88,0 -10.39,-1.78 -13.5,-5.35 -3.12,-3.57 -4.68,-8.69 -4.68,-15.37 0,-4.21 0.77,-7.89 2.3,-11.06 1.53,-3.16 3.73,-5.59 6.6,-7.28 2.87,-1.69 6.23,-2.53 10.09,-2.53 3.86,0 7.88,0.95 11.84,2.85 l -2.77,6.97 c -1.51,-0.72 -3.04,-1.35 -4.57,-1.88 -1.53,-0.53 -3.03,-0.8 -4.51,-0.8 z"
         id="path196"
         style="fill:#09203e;fill-opacity:1" />
      <path
         class="cls-3"
         d="m 270.92,139.41 h -8.44 v -18.07 c 0,-4.46 -1.66,-6.7 -4.98,-6.7 -2.36,0 -4.07,0.8 -5.12,2.41 -1.05,1.6 -1.58,4.21 -1.58,7.8 v 14.56 h -8.44 V 96.35 h 8.44 v 8.77 c 0,0.68 -0.06,2.29 -0.19,4.81 l -0.19,2.49 h 0.44 c 1.88,-3.03 4.87,-4.54 8.97,-4.54 3.63,0 6.39,0.98 8.27,2.93 1.88,1.96 2.82,4.76 2.82,8.41 v 20.17 z"
         id="path198"
         style="fill:#09203e;fill-opacity:1" />
      <path
         class="cls-3"
         d="m 293.61,139.96 c -4.98,0 -8.87,-1.37 -11.68,-4.12 -2.8,-2.75 -4.21,-6.64 -4.21,-11.68 0,-5.04 1.3,-9.19 3.89,-12.02 2.59,-2.83 6.18,-4.25 10.75,-4.25 4.57,0 7.78,1.25 10.21,3.74 2.43,2.49 3.65,5.93 3.65,10.32 v 4.1 h -19.95 c 0.09,2.4 0.8,4.27 2.13,5.62 1.33,1.35 3.19,2.02 5.59,2.02 1.86,0 3.62,-0.19 5.29,-0.58 1.66,-0.39 3.39,-1.01 5.2,-1.85 v 6.53 c -1.48,0.74 -3.05,1.29 -4.73,1.65 -1.68,0.36 -3.73,0.54 -6.14,0.54 z m -1.19,-26.07 c -1.79,0 -3.19,0.57 -4.21,1.7 -1.01,1.13 -1.6,2.74 -1.74,4.83 h 11.84 c -0.04,-2.08 -0.58,-3.69 -1.63,-4.83 -1.05,-1.13 -2.47,-1.7 -4.26,-1.7 z"
         id="path200"
         style="fill:#09203e;fill-opacity:1" />
      <path
         class="cls-3"
         d="m 325.65,139.96 c -9.63,0 -14.44,-5.29 -14.44,-15.86 0,-5.26 1.31,-9.27 3.93,-12.05 2.62,-2.78 6.37,-4.16 11.26,-4.16 3.58,0 6.79,0.7 9.63,2.1 l -2.49,6.53 c -1.33,-0.53 -2.56,-0.97 -3.71,-1.31 -1.14,-0.34 -2.29,-0.51 -3.43,-0.51 -4.39,0 -6.59,3.12 -6.59,9.35 0,6.23 2.2,9.08 6.59,9.08 1.62,0 3.13,-0.22 4.51,-0.65 1.38,-0.43 2.77,-1.11 4.15,-2.03 v 7.22 c -1.37,0.87 -2.74,1.47 -4.14,1.8 -1.39,0.33 -3.15,0.5 -5.27,0.5 z"
         id="path202"
         style="fill:#09203e;fill-opacity:1" />
      <path
         class="cls-3"
         d="m 350.33,122.58 3.68,-4.7 8.66,-9.41 h 9.52 l -12.29,13.42 13.03,17.52 h -9.74 l -8.91,-12.54 -3.62,2.91 v 9.63 h -8.44 V 96.35 h 8.44 v 19.2 l -0.44,7.03 z"
         id="path204"
         style="fill:#09203e;fill-opacity:1" />
      <path
         class="cls-3"
         d="m 385.81,139.41 h -8.44 V 96.35 h 8.44 z"
         id="path206"
         style="fill:#09203e;fill-opacity:1" />
      <path
         class="cls-3"
         d="m 394.31,100.47 c 0,-2.75 1.53,-4.12 4.59,-4.12 3.06,0 4.59,1.37 4.59,4.12 0,1.31 -0.38,2.33 -1.15,3.06 -0.77,0.73 -1.91,1.09 -3.45,1.09 -3.06,0 -4.59,-1.38 -4.59,-4.15 z m 8.8,38.93 h -8.44 v -30.94 h 8.44 z"
         id="path208"
         style="fill:#09203e;fill-opacity:1" />
      <path
         class="cls-3"
         d="m 433.54,130.22 c 0,3.17 -1.1,5.59 -3.31,7.25 -2.21,1.66 -5.5,2.49 -9.89,2.49 -2.25,0 -4.17,-0.15 -5.76,-0.46 -1.59,-0.3 -3.07,-0.75 -4.46,-1.34 v -6.97 c 1.57,0.74 3.33,1.36 5.3,1.85 1.97,0.49 3.69,0.75 5.19,0.75 3.06,0 4.59,-0.89 4.59,-2.66 0,-0.66 -0.2,-1.2 -0.61,-1.62 -0.41,-0.42 -1.11,-0.89 -2.1,-1.41 -1,-0.53 -2.32,-1.14 -3.99,-1.84 -2.38,-1 -4.13,-1.92 -5.24,-2.77 -1.12,-0.85 -1.93,-1.82 -2.44,-2.92 -0.51,-1.1 -0.76,-2.45 -0.76,-4.05 0,-2.75 1.07,-4.87 3.2,-6.38 2.13,-1.5 5.15,-2.26 9.06,-2.26 3.91,0 7.35,0.81 10.88,2.44 l -2.55,6.09 c -1.55,-0.66 -3,-1.21 -4.34,-1.63 -1.34,-0.42 -2.72,-0.64 -4.12,-0.64 -2.49,0 -3.74,0.67 -3.74,2.02 0,0.76 0.4,1.41 1.2,1.96 0.8,0.55 2.56,1.37 5.27,2.46 2.42,0.98 4.19,1.89 5.31,2.74 1.12,0.85 1.96,1.83 2.49,2.93 0.53,1.1 0.8,2.43 0.8,3.96 z"
         id="path210"
         style="fill:#09203e;fill-opacity:1" />
      <path
         class="cls-3"
         d="m 453.16,133.24 c 1.48,0 3.25,-0.32 5.31,-0.97 v 6.28 c -2.1,0.94 -4.69,1.41 -7.75,1.41 -3.38,0 -5.83,-0.85 -7.38,-2.56 -1.54,-1.71 -2.31,-4.27 -2.31,-7.68 V 114.8 h -4.04 v -3.57 l 4.65,-2.82 2.44,-6.53 h 5.4 v 6.59 h 8.66 v 6.34 h -8.66 v 14.92 c 0,1.2 0.34,2.08 1.01,2.66 0.67,0.57 1.56,0.86 2.67,0.86 z"
         id="path212"
         style="fill:#09203e;fill-opacity:1" />
      <path
         class="cls-3"
         d="m 465.4,98.95 h 12.59 c 5.74,0 9.9,0.82 12.49,2.45 2.59,1.63 3.89,4.23 3.89,7.79 0,2.42 -0.57,4.4 -1.7,5.95 -1.13,1.55 -2.64,2.48 -4.52,2.79 v 0.28 c 2.56,0.57 4.41,1.64 5.55,3.21 1.13,1.57 1.7,3.65 1.7,6.25 0,3.69 -1.33,6.57 -4,8.63 -2.67,2.07 -6.29,3.1 -10.86,3.1 H 465.4 V 98.94 Z m 8.58,16.02 h 4.98 c 2.32,0 4.01,-0.36 5.05,-1.08 1.04,-0.72 1.56,-1.91 1.56,-3.57 0,-1.55 -0.57,-2.66 -1.7,-3.33 -1.13,-0.67 -2.93,-1.01 -5.38,-1.01 h -4.51 z m 0,6.81 v 10.54 h 5.59 c 2.36,0 4.1,-0.45 5.23,-1.36 1.13,-0.9 1.69,-2.29 1.69,-4.15 0,-3.36 -2.4,-5.04 -7.19,-5.04 h -5.31 z"
         id="path214"
         style="fill:#09203e;fill-opacity:1" />
      <path
         class="cls-3"
         d="m 522.46,139.41 -1.63,-4.21 h -0.22 c -1.42,1.79 -2.88,3.03 -4.39,3.72 -1.5,0.69 -3.46,1.04 -5.88,1.04 -2.97,0 -5.31,-0.85 -7.01,-2.55 -1.71,-1.7 -2.56,-4.11 -2.56,-7.25 0,-3.14 1.15,-5.7 3.45,-7.26 2.3,-1.56 5.76,-2.42 10.39,-2.59 l 5.37,-0.17 v -1.36 c 0,-3.14 -1.6,-4.7 -4.81,-4.7 -2.47,0 -5.38,0.75 -8.72,2.24 l -2.79,-5.7 c 3.56,-1.86 7.51,-2.79 11.84,-2.79 4.33,0 7.33,0.9 9.55,2.71 2.21,1.81 3.32,4.56 3.32,8.25 v 20.62 h -5.89 z m -2.49,-14.33 -3.26,0.11 c -2.45,0.07 -4.28,0.52 -5.48,1.33 -1.2,0.81 -1.8,2.05 -1.8,3.71 0,2.38 1.37,3.57 4.1,3.57 1.96,0 3.52,-0.56 4.69,-1.69 1.17,-1.13 1.76,-2.62 1.76,-4.48 v -2.55 z"
         id="path216"
         style="fill:#09203e;fill-opacity:1" />
      <path
         class="cls-3"
         d="m 565.6,139.41 h -8.44 v -18.07 c 0,-2.23 -0.4,-3.91 -1.19,-5.02 -0.79,-1.12 -2.06,-1.67 -3.79,-1.67 -2.36,0 -4.07,0.79 -5.12,2.37 -1.05,1.58 -1.58,4.19 -1.58,7.84 v 14.56 h -8.44 v -30.94 h 6.45 l 1.13,3.96 h 0.47 c 0.94,-1.49 2.24,-2.62 3.89,-3.39 1.65,-0.77 3.53,-1.15 5.63,-1.15 3.6,0 6.33,0.97 8.19,2.92 1.86,1.95 2.79,4.76 2.79,8.43 v 20.17 z"
         id="path218"
         style="fill:#09203e;fill-opacity:1" />
      <path
         class="cls-3"
         d="m 582.39,122.58 3.68,-4.7 8.66,-9.41 h 9.52 l -12.29,13.42 13.03,17.52 h -9.74 l -8.91,-12.54 -3.62,2.91 v 9.63 h -8.44 V 96.35 h 8.44 v 19.2 l -0.44,7.03 z"
         id="path220"
         style="fill:#09203e;fill-opacity:1" />
    </g>
    <g
       id="g234">
      <rect
         class="cls-1"
         x="205"
         y="158"
         width="100"
         height="8"
         id="rect226" />
      <rect
         class="cls-2"
         x="305"
         y="158"
         width="100"
         height="8"
         id="rect228" />
      <rect
         class="cls-4"
         x="405"
         y="158"
         width="100"
         height="8"
         id="rect230" />
      <rect
         class="cls-5"
         x="505"
         y="158"
         width="100"
         height="8"
         id="rect232" />
    </g>
  </g>
</svg>
